<?xml version="1.0" standalone="no"?>
<!DOCTYPE svg PUBLIC "-//W3C//DTD SVG 20010904//EN"
 "http://www.w3.org/TR/2001/REC-SVG-20010904/DTD/svg10.dtd">
<svg version="1.0" xmlns="http://www.w3.org/2000/svg"
 width="936.000000pt" height="936.000000pt" viewBox="0 0 936.000000 936.000000"
 preserveAspectRatio="xMidYMid meet">
<metadata>
Created by potrace 1.14, written by Peter Selinger 2001-2017
</metadata>
<g transform="translate(0.000000,936.000000) scale(0.100000,-0.100000)"
fill="#000000" stroke="none">
<path d="M4735 8143 c-352 -614 -641 -1119 -643 -1123 -1 -3 150 -271 335
-596 l338 -589 -58 -3 c-55 -3 -60 -5 -79 -38 -11 -19 -24 -32 -28 -27 -4 4
-156 266 -336 581 l-329 572 -1290 0 -1290 0 -643 -1120 -642 -1120 642 -1120
643 -1120 1290 0 1290 0 330 575 c181 316 332 575 335 575 3 0 14 -17 25 -38
18 -34 24 -37 68 -40 26 -2 47 -5 47 -8 0 -5 -261 -463 -531 -931 l-128 -222
33 -58 c18 -32 103 -179 188 -328 85 -148 189 -328 230 -400 113 -196 490
-853 672 -1172 l161 -283 1293 3 1293 2 101 175 c146 253 464 807 666 1160
425 741 480 837 498 868 19 31 19 33 0 65 -31 54 -322 560 -441 767 -61 107
-174 303 -250 435 -195 340 -524 912 -553 963 l-24 42 -673 0 -673 0 21 40 22
40 -27 50 -28 50 683 0 682 0 640 1117 c352 615 640 1122 640 1128 0 6 -288
513 -640 1128 l-640 1117 -1290 0 -1290 0 -640 -1117z m1416 -2985 l279 -488
-279 -487 -278 -488 -555 -3 -555 -2 -277 484 c-152 266 -276 489 -276 496 0
7 124 230 276 496 l277 484 555 -2 555 -3 278 -487z"/>
</g>
</svg>
